G04*
G04 #@! TF.GenerationSoftware,Altium Limited,Altium Designer,23.1.1 (15)*
G04*
G04 Layer_Color=65535*
%FSLAX44Y44*%
%MOMM*%
G71*
G04*
G04 #@! TF.SameCoordinates,DA8C0BEE-71F1-460D-B415-3B7703EDD080*
G04*
G04*
G04 #@! TF.FilePolarity,Positive*
G04*
G01*
G75*
%ADD10C,0.2000*%
%ADD11C,0.1800*%
%ADD12C,0.1500*%
D10*
X758000Y1245400D02*
X775000D01*
X719900D02*
X746050D01*
X681800D02*
X707950D01*
X643700D02*
X669850D01*
X605600D02*
X631750D01*
X567500D02*
X593650D01*
X529400D02*
X555550D01*
X491300D02*
X517450D01*
X453200D02*
X479350D01*
X415100D02*
X441250D01*
X775000Y1216400D02*
Y1245400D01*
X310150Y1216400D02*
Y1245400D01*
X377000D02*
X403150D01*
X345150D02*
X365150D01*
X310150D02*
X321150D01*
X383309Y1174615D02*
X703309D01*
X383309Y1113378D02*
X703309D01*
D11*
X407000Y1114000D02*
Y1126000D01*
X401591Y1119409D02*
X407000Y1114000D01*
X401591Y1120591D02*
X407000Y1126000D01*
X404000Y1120000D02*
Y1120000D01*
X401000Y1114000D02*
Y1126000D01*
X393591Y1120000D02*
X413591D01*
X463591D02*
X483591D01*
X471000Y1114000D02*
Y1126000D01*
X474000Y1120000D02*
Y1120000D01*
X471591Y1120591D02*
X477000Y1126000D01*
X471591Y1119409D02*
X477000Y1114000D01*
Y1126000D01*
X533591Y1120000D02*
X553591D01*
X541000Y1114000D02*
Y1126000D01*
X544000Y1120000D02*
Y1120000D01*
X541591Y1120591D02*
X547000Y1126000D01*
X541591Y1119409D02*
X547000Y1114000D01*
Y1126000D01*
X603591Y1120000D02*
X623591D01*
X611000Y1114000D02*
Y1126000D01*
X614000Y1120000D02*
Y1120000D01*
X611591Y1120591D02*
X617000Y1126000D01*
X611591Y1119409D02*
X617000Y1114000D01*
Y1126000D01*
X673591Y1120000D02*
X693591D01*
X681000Y1114000D02*
Y1126000D01*
X684000Y1120000D02*
Y1120000D01*
X681591Y1120591D02*
X687000Y1126000D01*
X681591Y1119409D02*
X687000Y1114000D01*
Y1126000D01*
D12*
X746670Y982499D02*
X751335Y975501D01*
Y982499D02*
X746670Y975501D01*
X758333Y981333D02*
X757166Y982499D01*
X754834D01*
X753667Y981333D01*
Y980166D01*
X754834Y979000D01*
X757166D01*
X758333Y977834D01*
Y976667D01*
X757166Y975501D01*
X754834D01*
X753667Y976667D01*
X765330Y975501D02*
X760665D01*
X765330Y980166D01*
Y981333D01*
X764164Y982499D01*
X761832D01*
X760665Y981333D01*
X937335Y1190333D02*
X936169Y1191499D01*
X933836D01*
X932670Y1190333D01*
Y1189166D01*
X933836Y1188000D01*
X936169D01*
X937335Y1186834D01*
Y1185667D01*
X936169Y1184501D01*
X933836D01*
X932670Y1185667D01*
X939667Y1191499D02*
Y1184501D01*
X942000Y1186834D01*
X944333Y1184501D01*
Y1191499D01*
X946665Y1190333D02*
X947831Y1191499D01*
X950164D01*
X951330Y1190333D01*
Y1189166D01*
X950164Y1188000D01*
X948998D01*
X950164D01*
X951330Y1186834D01*
Y1185667D01*
X950164Y1184501D01*
X947831D01*
X946665Y1185667D01*
X835335Y1191333D02*
X834168Y1192499D01*
X831836D01*
X830670Y1191333D01*
Y1190166D01*
X831836Y1189000D01*
X834168D01*
X835335Y1187834D01*
Y1186667D01*
X834168Y1185501D01*
X831836D01*
X830670Y1186667D01*
X837667Y1192499D02*
Y1185501D01*
X840000Y1187834D01*
X842333Y1185501D01*
Y1192499D01*
X849330Y1185501D02*
X844665D01*
X849330Y1190166D01*
Y1191333D01*
X848164Y1192499D01*
X845832D01*
X844665Y1191333D01*
X824831Y874004D02*
X823665Y875170D01*
X821332D01*
X820166Y874004D01*
Y872837D01*
X821332Y871671D01*
X823665D01*
X824831Y870505D01*
Y869338D01*
X823665Y868172D01*
X821332D01*
X820166Y869338D01*
X827164Y875170D02*
Y868172D01*
X829496Y870505D01*
X831829Y868172D01*
Y875170D01*
X834162Y868172D02*
X836494D01*
X835328D01*
Y875170D01*
X834162Y874004D01*
X295621Y1197206D02*
X302619Y1201871D01*
X295621D02*
X302619Y1197206D01*
X296787Y1208869D02*
X295621Y1207703D01*
Y1205370D01*
X296787Y1204204D01*
X297954D01*
X299120Y1205370D01*
Y1207703D01*
X300286Y1208869D01*
X301453D01*
X302619Y1207703D01*
Y1205370D01*
X301453Y1204204D01*
X302619Y1211201D02*
Y1213534D01*
Y1212368D01*
X295621D01*
X296787Y1211201D01*
X321275Y1121836D02*
X328273D01*
X324774D01*
Y1126501D01*
X321275D01*
X328273D01*
X321275Y1128834D02*
X328273D01*
Y1133499D01*
Y1135832D02*
Y1138164D01*
Y1136998D01*
X321275D01*
X322441Y1135832D01*
M02*
