G04*
G04 #@! TF.GenerationSoftware,Altium Limited,Altium Designer,23.1.1 (15)*
G04*
G04 Layer_Color=32896*
%FSLAX44Y44*%
%MOMM*%
G71*
G04*
G04 #@! TF.SameCoordinates,DA8C0BEE-71F1-460D-B415-3B7703EDD080*
G04*
G04*
G04 #@! TF.FilePolarity,Positive*
G04*
G01*
G75*
%ADD10C,0.2000*%
%ADD12C,0.1500*%
%ADD47C,0.2500*%
D10*
X859000Y1006500D02*
X925000D01*
Y977500D02*
Y1006500D01*
X859000Y977500D02*
X925000D01*
X859000D02*
Y1006500D01*
X899000Y977500D02*
Y1006500D01*
X762000Y1180500D02*
Y1194250D01*
X780000D01*
Y1180500D02*
Y1194250D01*
X762000Y1158750D02*
Y1172500D01*
Y1158750D02*
X780000D01*
Y1172500D01*
X782000Y962000D02*
Y975750D01*
X800000D01*
Y962000D02*
Y975750D01*
X782000Y940250D02*
Y954000D01*
Y940250D02*
X800000D01*
Y954000D01*
X853500Y944000D02*
Y970000D01*
X858500Y944000D02*
Y970000D01*
X853500Y944000D02*
X858500D01*
X853500Y970000D02*
X858500D01*
X905040Y1038730D02*
X918790D01*
Y1020730D02*
Y1038730D01*
X905040Y1020730D02*
X918790D01*
X883290Y1038730D02*
X897040D01*
X883290Y1020730D02*
Y1038730D01*
Y1020730D02*
X897040D01*
X884000Y1044000D02*
Y1084000D01*
X867000D02*
X912000D01*
Y1078000D02*
Y1084000D01*
X867000Y1078000D02*
Y1084000D01*
Y1044000D02*
Y1050000D01*
X912000Y1044000D02*
Y1050000D01*
X867000Y1044000D02*
X912000D01*
D12*
X831500Y979000D02*
X834500D01*
X831500Y999000D02*
X834500D01*
X914330Y1094499D02*
Y1089834D01*
X911998Y1087501D01*
X909665Y1089834D01*
Y1094499D01*
X907333D02*
Y1087501D01*
X903834D01*
X902667Y1088667D01*
Y1093333D01*
X903834Y1094499D01*
X907333D01*
X895670Y1087501D02*
X900335D01*
X895670Y1092166D01*
Y1093333D01*
X896836Y1094499D01*
X899168D01*
X900335Y1093333D01*
X945164Y1006499D02*
Y1001834D01*
X942831Y999501D01*
X940499Y1001834D01*
Y1006499D01*
X938166D02*
Y999501D01*
X934667D01*
X933501Y1000667D01*
Y1005333D01*
X934667Y1006499D01*
X938166D01*
X931169Y999501D02*
X928836D01*
X930002D01*
Y1006499D01*
X931169Y1005333D01*
X699831Y1190501D02*
Y1197499D01*
X696333D01*
X695166Y1196333D01*
Y1194000D01*
X696333Y1192834D01*
X699831D01*
X697499D02*
X695166Y1190501D01*
X692834Y1196333D02*
X691667Y1197499D01*
X689335D01*
X688168Y1196333D01*
Y1195166D01*
X689335Y1194000D01*
X688168Y1192834D01*
Y1191667D01*
X689335Y1190501D01*
X691667D01*
X692834Y1191667D01*
Y1192834D01*
X691667Y1194000D01*
X692834Y1195166D01*
Y1196333D01*
X691667Y1194000D02*
X689335D01*
X629832Y1189501D02*
Y1196499D01*
X626333D01*
X625166Y1195333D01*
Y1193000D01*
X626333Y1191834D01*
X629832D01*
X627499D02*
X625166Y1189501D01*
X622834Y1196499D02*
X618168D01*
Y1195333D01*
X622834Y1190667D01*
Y1189501D01*
X559832D02*
Y1196499D01*
X556333D01*
X555166Y1195333D01*
Y1193000D01*
X556333Y1191834D01*
X559832D01*
X557499D02*
X555166Y1189501D01*
X548169Y1196499D02*
X550501Y1195333D01*
X552834Y1193000D01*
Y1190667D01*
X551667Y1189501D01*
X549335D01*
X548169Y1190667D01*
Y1191834D01*
X549335Y1193000D01*
X552834D01*
X490100Y1188331D02*
Y1195329D01*
X486601D01*
X485435Y1194162D01*
Y1191830D01*
X486601Y1190663D01*
X490100D01*
X487768D02*
X485435Y1188331D01*
X478438Y1195329D02*
X483103D01*
Y1191830D01*
X480770Y1192996D01*
X479604D01*
X478438Y1191830D01*
Y1189497D01*
X479604Y1188331D01*
X481936D01*
X483103Y1189497D01*
X430558Y1188498D02*
Y1195495D01*
X427059D01*
X425893Y1194329D01*
Y1191997D01*
X427059Y1190830D01*
X430558D01*
X428226D02*
X425893Y1188498D01*
X420062D02*
Y1195495D01*
X423560Y1191997D01*
X418895D01*
X897501Y946169D02*
X904499D01*
Y949667D01*
X903333Y950834D01*
X901000D01*
X899834Y949667D01*
Y946169D01*
Y948501D02*
X897501Y950834D01*
X903333Y953166D02*
X904499Y954333D01*
Y956665D01*
X903333Y957831D01*
X902166D01*
X901000Y956665D01*
Y955499D01*
Y956665D01*
X899834Y957831D01*
X898667D01*
X897501Y956665D01*
Y954333D01*
X898667Y953166D01*
X916501Y946169D02*
X923499D01*
Y949667D01*
X922333Y950834D01*
X920000D01*
X918834Y949667D01*
Y946169D01*
Y948501D02*
X916501Y950834D01*
Y957831D02*
Y953166D01*
X921166Y957831D01*
X922333D01*
X923499Y956665D01*
Y954333D01*
X922333Y953166D01*
X824501Y955335D02*
X831499D01*
Y958834D01*
X830333Y960000D01*
X828000D01*
X826834Y958834D01*
Y955335D01*
Y957667D02*
X824501Y960000D01*
Y962333D02*
Y964665D01*
Y963499D01*
X831499D01*
X830333Y962333D01*
X850665Y1011499D02*
Y1004501D01*
X846000D01*
X843667D02*
X841335D01*
X842501D01*
Y1011499D01*
X843667Y1010333D01*
X875164Y940499D02*
Y933501D01*
X871665D01*
X870499Y934667D01*
Y939333D01*
X871665Y940499D01*
X875164D01*
X868166Y933501D02*
Y938166D01*
X865834Y940499D01*
X863501Y938166D01*
Y933501D01*
Y937000D01*
X868166D01*
X861169Y933501D02*
X858836D01*
X860002D01*
Y940499D01*
X861169Y939333D01*
X775333Y1202834D02*
X776499Y1201667D01*
Y1199335D01*
X775333Y1198168D01*
X770667D01*
X769501Y1199335D01*
Y1201667D01*
X770667Y1202834D01*
X776499Y1209831D02*
Y1205166D01*
X773000D01*
X774166Y1207499D01*
Y1208665D01*
X773000Y1209831D01*
X770667D01*
X769501Y1208665D01*
Y1206333D01*
X770667Y1205166D01*
X928166Y1037333D02*
X929333Y1038499D01*
X931665D01*
X932831Y1037333D01*
Y1032667D01*
X931665Y1031501D01*
X929333D01*
X928166Y1032667D01*
X922335Y1031501D02*
Y1038499D01*
X925834Y1035000D01*
X921169D01*
X788333Y1202834D02*
X789499Y1201667D01*
Y1199335D01*
X788333Y1198168D01*
X783667D01*
X782501Y1199335D01*
Y1201667D01*
X783667Y1202834D01*
X788333Y1205166D02*
X789499Y1206333D01*
Y1208665D01*
X788333Y1209831D01*
X787166D01*
X786000Y1208665D01*
Y1207499D01*
Y1208665D01*
X784834Y1209831D01*
X783667D01*
X782501Y1208665D01*
Y1206333D01*
X783667Y1205166D01*
X826166Y939333D02*
X827333Y940499D01*
X829665D01*
X830832Y939333D01*
Y934667D01*
X829665Y933501D01*
X827333D01*
X826166Y934667D01*
X819168Y940499D02*
X821501Y939333D01*
X823834Y937000D01*
Y934667D01*
X822667Y933501D01*
X820335D01*
X819168Y934667D01*
Y935834D01*
X820335Y937000D01*
X823834D01*
X922166Y1016333D02*
X923333Y1017499D01*
X925665D01*
X926832Y1016333D01*
Y1011667D01*
X925665Y1010501D01*
X923333D01*
X922166Y1011667D01*
X915169Y1010501D02*
X919834D01*
X915169Y1015166D01*
Y1016333D01*
X916335Y1017499D01*
X918667D01*
X919834Y1016333D01*
X810333Y960000D02*
X811499Y958834D01*
Y956501D01*
X810333Y955335D01*
X805667D01*
X804501Y956501D01*
Y958834D01*
X805667Y960000D01*
X804501Y962333D02*
Y964665D01*
Y963499D01*
X811499D01*
X810333Y962333D01*
D47*
X870250Y974000D02*
G03*
X870250Y974000I-1250J0D01*
G01*
M02*
