G04*
G04 #@! TF.GenerationSoftware,Altium Limited,Altium Designer,23.1.1 (15)*
G04*
G04 Layer_Physical_Order=2*
G04 Layer_Color=16711680*
%FSLAX44Y44*%
%MOMM*%
G71*
G04*
G04 #@! TF.SameCoordinates,DA8C0BEE-71F1-460D-B415-3B7703EDD080*
G04*
G04*
G04 #@! TF.FilePolarity,Positive*
G04*
G01*
G75*
%ADD17C,1.8000*%
%ADD20C,0.8000*%
%ADD21C,0.2540*%
%ADD22C,1.0000*%
%ADD23C,3.1000*%
%ADD24C,2.0000*%
%ADD25R,2.0000X2.0000*%
%ADD26C,1.7000*%
%ADD27C,1.5240*%
%ADD28C,0.7112*%
%ADD29C,1.2700*%
%ADD30R,0.6000X0.6000*%
%ADD31R,2.0000X2.0000*%
%ADD32R,0.6000X0.6000*%
%ADD33R,1.3000X1.1000*%
%ADD34R,1.2700X2.2000*%
%ADD35R,1.1000X0.6000*%
%ADD36R,1.1000X1.3000*%
%ADD37R,2.0000X2.4000*%
%ADD38C,0.5000*%
G36*
X942000Y1213000D02*
X993386D01*
Y864143D01*
X942143D01*
X942000Y864000D01*
Y855963D01*
X940730Y855796D01*
X940554Y856454D01*
X939034Y859086D01*
X936886Y861234D01*
X934254Y862754D01*
X931319Y863540D01*
X928281D01*
X925346Y862754D01*
X922714Y861234D01*
X920566Y859086D01*
X919046Y856454D01*
X918260Y853519D01*
Y850481D01*
X919046Y847546D01*
X920566Y844914D01*
X922714Y842766D01*
X925346Y841246D01*
X928281Y840460D01*
X931319D01*
X934254Y841246D01*
X936886Y842766D01*
X939034Y844914D01*
X940554Y847546D01*
X940730Y848204D01*
X942000Y848037D01*
Y816614D01*
X744614D01*
Y914844D01*
X745581Y915103D01*
X745884Y915108D01*
X747762Y913230D01*
X750078Y911892D01*
X752662Y911200D01*
X752730D01*
Y921360D01*
Y931520D01*
X752662D01*
X750078Y930828D01*
X747762Y929490D01*
X745884Y927612D01*
X745581Y927617D01*
X744614Y927876D01*
Y955484D01*
X745581Y955743D01*
X745884Y955748D01*
X747762Y953870D01*
X750078Y952532D01*
X752662Y951840D01*
X755338D01*
X757922Y952532D01*
X760238Y953870D01*
X762130Y955762D01*
X763468Y958078D01*
X764160Y960662D01*
Y963338D01*
X763468Y965922D01*
X762130Y968238D01*
X760238Y970130D01*
X757922Y971468D01*
X755338Y972160D01*
X752662D01*
X750078Y971468D01*
X747762Y970130D01*
X745884Y968252D01*
X745581Y968257D01*
X744614Y968516D01*
Y1073318D01*
X744320Y1075547D01*
X743460Y1077625D01*
X742091Y1079409D01*
X740307Y1080778D01*
X738229Y1081638D01*
X736000Y1081932D01*
X312589Y1081932D01*
Y1130143D01*
X262614D01*
Y1215000D01*
X313000D01*
X312589Y1215411D01*
Y1261386D01*
X942000D01*
Y1213000D01*
D02*
G37*
%LPC*%
G36*
X715651Y1247940D02*
X715270D01*
Y1236670D01*
X726540D01*
Y1237051D01*
X725685Y1240240D01*
X724035Y1243100D01*
X721700Y1245434D01*
X718840Y1247085D01*
X715651Y1247940D01*
D02*
G37*
G36*
X712730D02*
X712349D01*
X709160Y1247085D01*
X706300Y1245434D01*
X703966Y1243100D01*
X702315Y1240240D01*
X701460Y1237051D01*
Y1236670D01*
X712730D01*
Y1247940D01*
D02*
G37*
G36*
X639451D02*
X639070D01*
Y1236670D01*
X650340D01*
Y1237051D01*
X649485Y1240240D01*
X647834Y1243100D01*
X645500Y1245434D01*
X642640Y1247085D01*
X639451Y1247940D01*
D02*
G37*
G36*
X636530D02*
X636149D01*
X632960Y1247085D01*
X630100Y1245434D01*
X627766Y1243100D01*
X626115Y1240240D01*
X625260Y1237051D01*
Y1236670D01*
X636530D01*
Y1247940D01*
D02*
G37*
G36*
X410851D02*
X410470D01*
Y1236670D01*
X421740D01*
Y1237051D01*
X420885Y1240240D01*
X419235Y1243100D01*
X416900Y1245434D01*
X414040Y1247085D01*
X410851Y1247940D01*
D02*
G37*
G36*
X407930D02*
X407549D01*
X404360Y1247085D01*
X401500Y1245434D01*
X399165Y1243100D01*
X397515Y1240240D01*
X396660Y1237051D01*
Y1236670D01*
X407930D01*
Y1247940D01*
D02*
G37*
G36*
X345540D02*
X334270D01*
Y1236670D01*
X345540D01*
Y1247940D01*
D02*
G37*
G36*
X331730D02*
X320460D01*
Y1236670D01*
X331730D01*
Y1247940D01*
D02*
G37*
G36*
X726540Y1234130D02*
X701460D01*
Y1233749D01*
X702315Y1230560D01*
X703966Y1227700D01*
X706300Y1225366D01*
X709160Y1223715D01*
X710493Y1223357D01*
Y1222043D01*
X709160Y1221685D01*
X706300Y1220034D01*
X703966Y1217700D01*
X702315Y1214840D01*
X701460Y1211651D01*
Y1211270D01*
X726540D01*
Y1211651D01*
X725685Y1214840D01*
X724035Y1217700D01*
X721700Y1220034D01*
X718840Y1221685D01*
X717507Y1222043D01*
Y1223357D01*
X718840Y1223715D01*
X721700Y1225366D01*
X724035Y1227700D01*
X725685Y1230560D01*
X726540Y1233749D01*
Y1234130D01*
D02*
G37*
G36*
X650340D02*
X625260D01*
Y1233749D01*
X626115Y1230560D01*
X627766Y1227700D01*
X630100Y1225366D01*
X632960Y1223715D01*
X634293Y1223357D01*
Y1222043D01*
X632960Y1221685D01*
X630100Y1220034D01*
X627766Y1217700D01*
X626115Y1214840D01*
X625260Y1211651D01*
Y1211270D01*
X650340D01*
Y1211651D01*
X649485Y1214840D01*
X647834Y1217700D01*
X645500Y1220034D01*
X642640Y1221685D01*
X641307Y1222043D01*
Y1223357D01*
X642640Y1223715D01*
X645500Y1225366D01*
X647834Y1227700D01*
X649485Y1230560D01*
X650340Y1233749D01*
Y1234130D01*
D02*
G37*
G36*
X421740D02*
X396660D01*
Y1233749D01*
X397515Y1230560D01*
X399165Y1227700D01*
X401500Y1225366D01*
X404360Y1223715D01*
X405693Y1223357D01*
Y1222043D01*
X404360Y1221685D01*
X401500Y1220034D01*
X399165Y1217700D01*
X397515Y1214840D01*
X396660Y1211651D01*
Y1211270D01*
X421740D01*
Y1211651D01*
X420885Y1214840D01*
X419235Y1217700D01*
X416900Y1220034D01*
X414040Y1221685D01*
X412707Y1222043D01*
Y1223357D01*
X414040Y1223715D01*
X416900Y1225366D01*
X419235Y1227700D01*
X420885Y1230560D01*
X421740Y1233749D01*
Y1234130D01*
D02*
G37*
G36*
X345540D02*
X320460D01*
Y1223810D01*
X320460Y1222860D01*
X320460Y1221590D01*
Y1211270D01*
X345540D01*
Y1221590D01*
X345540Y1222540D01*
X345540Y1223810D01*
Y1234130D01*
D02*
G37*
G36*
X677551Y1247940D02*
X674249D01*
X671060Y1247085D01*
X668200Y1245434D01*
X665865Y1243100D01*
X664215Y1240240D01*
X663360Y1237051D01*
Y1233749D01*
X664215Y1230560D01*
X665865Y1227700D01*
X668200Y1225366D01*
X671060Y1223715D01*
X672015Y1223458D01*
Y1221942D01*
X671060Y1221685D01*
X668200Y1220034D01*
X665865Y1217700D01*
X664215Y1214840D01*
X663360Y1211651D01*
Y1208349D01*
X664215Y1205160D01*
X665865Y1202300D01*
X666918Y1201248D01*
X666432Y1200075D01*
X647268D01*
X646782Y1201248D01*
X647834Y1202300D01*
X649485Y1205160D01*
X650340Y1208349D01*
Y1208730D01*
X625260D01*
Y1208349D01*
X626115Y1205160D01*
X627766Y1202300D01*
X628818Y1201248D01*
X628332Y1200075D01*
X609168D01*
X608682Y1201248D01*
X609734Y1202300D01*
X611385Y1205160D01*
X612240Y1208349D01*
Y1211651D01*
X611385Y1214840D01*
X609734Y1217700D01*
X607400Y1220034D01*
X607305Y1220089D01*
Y1225311D01*
X607400Y1225366D01*
X609734Y1227700D01*
X611385Y1230560D01*
X612240Y1233749D01*
Y1237051D01*
X611385Y1240240D01*
X609734Y1243100D01*
X607400Y1245434D01*
X604540Y1247085D01*
X601351Y1247940D01*
X598049D01*
X594860Y1247085D01*
X592000Y1245434D01*
X589665Y1243100D01*
X588015Y1240240D01*
X587160Y1237051D01*
Y1233749D01*
X588015Y1230560D01*
X589665Y1227700D01*
X592000Y1225366D01*
X592095Y1225311D01*
Y1220089D01*
X592000Y1220034D01*
X589665Y1217700D01*
X588015Y1214840D01*
X587160Y1211651D01*
Y1208349D01*
X588015Y1205160D01*
X589665Y1202300D01*
X590718Y1201248D01*
X590232Y1200075D01*
X577019D01*
X572791Y1204303D01*
X573285Y1205160D01*
X574140Y1208349D01*
Y1211651D01*
X573285Y1214840D01*
X571634Y1217700D01*
X569300Y1220034D01*
X566440Y1221685D01*
X565485Y1221942D01*
Y1223458D01*
X566440Y1223715D01*
X569300Y1225366D01*
X571634Y1227700D01*
X573285Y1230560D01*
X574140Y1233749D01*
Y1237051D01*
X573285Y1240240D01*
X571634Y1243100D01*
X569300Y1245434D01*
X566440Y1247085D01*
X563251Y1247940D01*
X559949D01*
X556760Y1247085D01*
X553900Y1245434D01*
X551566Y1243100D01*
X549915Y1240240D01*
X549060Y1237051D01*
Y1233749D01*
X549915Y1230560D01*
X551566Y1227700D01*
X553900Y1225366D01*
X556760Y1223715D01*
X557715Y1223458D01*
Y1221942D01*
X556760Y1221685D01*
X553900Y1220034D01*
X551566Y1217700D01*
X549915Y1214840D01*
X549060Y1211651D01*
Y1208349D01*
X549915Y1205160D01*
X551566Y1202300D01*
X553900Y1199966D01*
X556760Y1198315D01*
X559949Y1197460D01*
X563251D01*
X566440Y1198315D01*
X567297Y1198809D01*
X572663Y1193443D01*
X573923Y1192601D01*
X575410Y1192305D01*
X667201D01*
X678931Y1180575D01*
X680191Y1179733D01*
X681460Y1179481D01*
Y1177460D01*
X691638D01*
Y1154388D01*
X691264Y1154288D01*
X688746Y1152834D01*
X686691Y1150779D01*
X685237Y1148261D01*
X684485Y1145453D01*
Y1142547D01*
X685237Y1139739D01*
X686691Y1137221D01*
X688746Y1135166D01*
X691264Y1133712D01*
X694072Y1132960D01*
X696979D01*
X699786Y1133712D01*
X702304Y1135166D01*
X704359Y1137221D01*
X704999Y1138330D01*
X706269Y1137990D01*
Y1120980D01*
X706666Y1117968D01*
X707829Y1115160D01*
X709678Y1112750D01*
X712089Y1110900D01*
X714896Y1109737D01*
X717909Y1109341D01*
X720921Y1109737D01*
X723729Y1110900D01*
X726139Y1112750D01*
X727989Y1115160D01*
X729152Y1117968D01*
X729548Y1120980D01*
Y1166980D01*
X729152Y1169993D01*
X727989Y1172800D01*
X726139Y1175210D01*
X723729Y1177060D01*
X720921Y1178223D01*
X717909Y1178620D01*
X714896Y1178223D01*
X712089Y1177060D01*
X709678Y1175210D01*
X707829Y1172800D01*
X706666Y1169993D01*
X706269Y1166980D01*
Y1150010D01*
X704999Y1149670D01*
X704359Y1150779D01*
X702304Y1152834D01*
X699786Y1154288D01*
X699408Y1154389D01*
Y1177460D01*
X702540D01*
Y1188540D01*
X681954D01*
X674304Y1196190D01*
X674830Y1197460D01*
X677551D01*
X680740Y1198315D01*
X681597Y1198809D01*
X689153Y1191253D01*
X690413Y1190411D01*
X691900Y1190115D01*
X721391D01*
X832593Y1078913D01*
X830766Y1077086D01*
X829246Y1074454D01*
X828460Y1071519D01*
Y1068481D01*
X829246Y1065546D01*
X830766Y1062914D01*
X832914Y1060766D01*
X835546Y1059246D01*
X838481Y1058460D01*
X841519D01*
X844454Y1059246D01*
X847086Y1060766D01*
X849234Y1062914D01*
X850753Y1065546D01*
X851540Y1068481D01*
Y1071519D01*
X850753Y1074454D01*
X849234Y1077086D01*
X847086Y1079234D01*
X844454Y1080753D01*
X841519Y1081540D01*
X840954D01*
X764707Y1157787D01*
X765193Y1158960D01*
X769730D01*
Y1165730D01*
X761960D01*
Y1162193D01*
X760787Y1161707D01*
X725747Y1196747D01*
X724487Y1197589D01*
X723000Y1197885D01*
X720636D01*
X720295Y1199155D01*
X721700Y1199966D01*
X724035Y1202300D01*
X725685Y1205160D01*
X726540Y1208349D01*
Y1208730D01*
X701460D01*
Y1208349D01*
X702315Y1205160D01*
X703966Y1202300D01*
X706300Y1199966D01*
X707705Y1199155D01*
X707364Y1197885D01*
X693509D01*
X687091Y1204303D01*
X687585Y1205160D01*
X688440Y1208349D01*
Y1211651D01*
X687585Y1214840D01*
X685935Y1217700D01*
X683600Y1220034D01*
X680740Y1221685D01*
X679785Y1221942D01*
Y1223458D01*
X680740Y1223715D01*
X683600Y1225366D01*
X685935Y1227700D01*
X687585Y1230560D01*
X688440Y1233749D01*
Y1237051D01*
X687585Y1240240D01*
X685935Y1243100D01*
X683600Y1245434D01*
X680740Y1247085D01*
X677551Y1247940D01*
D02*
G37*
G36*
X525151D02*
X521849D01*
X518660Y1247085D01*
X515800Y1245434D01*
X513465Y1243100D01*
X511815Y1240240D01*
X510960Y1237051D01*
Y1233749D01*
X511815Y1230560D01*
X513465Y1227700D01*
X515800Y1225366D01*
X515895Y1225311D01*
Y1220089D01*
X515800Y1220034D01*
X513465Y1217700D01*
X511815Y1214840D01*
X510960Y1211651D01*
Y1208349D01*
X511815Y1205160D01*
X513465Y1202300D01*
X515800Y1199966D01*
X517215Y1199149D01*
X516875Y1197879D01*
X492025D01*
X491685Y1199149D01*
X493100Y1199966D01*
X495434Y1202300D01*
X497085Y1205160D01*
X497940Y1208349D01*
Y1211651D01*
X497085Y1214840D01*
X495434Y1217700D01*
X493100Y1220034D01*
X490240Y1221685D01*
X489285Y1221942D01*
Y1223458D01*
X490240Y1223715D01*
X493100Y1225366D01*
X495434Y1227700D01*
X497085Y1230560D01*
X497940Y1233749D01*
Y1237051D01*
X497085Y1240240D01*
X495434Y1243100D01*
X493100Y1245434D01*
X490240Y1247085D01*
X487051Y1247940D01*
X483749D01*
X480560Y1247085D01*
X477700Y1245434D01*
X475365Y1243100D01*
X473715Y1240240D01*
X472860Y1237051D01*
Y1233749D01*
X473715Y1230560D01*
X475365Y1227700D01*
X477700Y1225366D01*
X480560Y1223715D01*
X481515Y1223458D01*
Y1221942D01*
X480560Y1221685D01*
X477700Y1220034D01*
X475365Y1217700D01*
X473715Y1214840D01*
X472860Y1211651D01*
Y1208349D01*
X473715Y1205160D01*
X475365Y1202300D01*
X477700Y1199966D01*
X480560Y1198315D01*
X480678Y1198283D01*
X480905Y1196907D01*
X480106Y1196374D01*
X474866Y1191134D01*
X473752Y1189466D01*
X473369Y1187540D01*
X472460D01*
Y1187139D01*
X433540D01*
Y1187540D01*
X412460D01*
Y1176460D01*
X412508D01*
Y1154511D01*
X411674Y1154288D01*
X409156Y1152834D01*
X407101Y1150779D01*
X405647Y1148261D01*
X404895Y1145453D01*
Y1142547D01*
X405647Y1139739D01*
X407101Y1137221D01*
X409156Y1135166D01*
X411674Y1133712D01*
X414481Y1132960D01*
X417388D01*
X420196Y1133712D01*
X422714Y1135166D01*
X424769Y1137221D01*
X426222Y1139739D01*
X426975Y1142547D01*
Y1145453D01*
X426222Y1148261D01*
X424769Y1150779D01*
X422714Y1152834D01*
X420277Y1154241D01*
Y1176460D01*
X433540D01*
Y1176861D01*
X472460D01*
Y1176460D01*
X482477D01*
Y1154610D01*
X481273Y1154288D01*
X478755Y1152834D01*
X476700Y1150779D01*
X475246Y1148261D01*
X474494Y1145453D01*
Y1142547D01*
X475246Y1139739D01*
X476700Y1137221D01*
X478755Y1135166D01*
X481273Y1133712D01*
X484081Y1132960D01*
X486987D01*
X489795Y1133712D01*
X492313Y1135166D01*
X494368Y1137221D01*
X495822Y1139739D01*
X496574Y1142547D01*
Y1145453D01*
X495822Y1148261D01*
X494368Y1150779D01*
X492313Y1152834D01*
X490247Y1154027D01*
Y1176460D01*
X493540D01*
Y1187540D01*
X494785Y1187601D01*
X521371D01*
X529606Y1179366D01*
X531273Y1178252D01*
X533240Y1177861D01*
X542460D01*
Y1177460D01*
X552492D01*
Y1154550D01*
X551512Y1154288D01*
X548995Y1152834D01*
X546940Y1150779D01*
X545486Y1148261D01*
X544734Y1145453D01*
Y1142547D01*
X545486Y1139739D01*
X546940Y1137221D01*
X548995Y1135166D01*
X551512Y1133712D01*
X554320Y1132960D01*
X557227D01*
X560035Y1133712D01*
X562552Y1135166D01*
X564608Y1137221D01*
X566062Y1139739D01*
X566814Y1142547D01*
Y1145453D01*
X566062Y1148261D01*
X564608Y1150779D01*
X562552Y1152834D01*
X560261Y1154157D01*
Y1177460D01*
X563540D01*
Y1188540D01*
X542460D01*
Y1188139D01*
X535368D01*
X528639Y1194868D01*
Y1198487D01*
X531200Y1199966D01*
X533535Y1202300D01*
X535185Y1205160D01*
X536040Y1208349D01*
Y1211651D01*
X535185Y1214840D01*
X533535Y1217700D01*
X531200Y1220034D01*
X531105Y1220089D01*
Y1225311D01*
X531200Y1225366D01*
X533535Y1227700D01*
X535185Y1230560D01*
X536040Y1233749D01*
Y1237051D01*
X535185Y1240240D01*
X533535Y1243100D01*
X531200Y1245434D01*
X528340Y1247085D01*
X525151Y1247940D01*
D02*
G37*
G36*
X753751D02*
X750449D01*
X747260Y1247085D01*
X744400Y1245434D01*
X742066Y1243100D01*
X740415Y1240240D01*
X739560Y1237051D01*
Y1233749D01*
X740415Y1230560D01*
X742066Y1227700D01*
X744400Y1225366D01*
X747260Y1223715D01*
X748215Y1223458D01*
Y1221942D01*
X747260Y1221685D01*
X744400Y1220034D01*
X742066Y1217700D01*
X740415Y1214840D01*
X739560Y1211651D01*
Y1208349D01*
X740415Y1205160D01*
X742066Y1202300D01*
X744400Y1199966D01*
X747260Y1198315D01*
X750449Y1197460D01*
X753751D01*
X756940Y1198315D01*
X759800Y1199966D01*
X762134Y1202300D01*
X763785Y1205160D01*
X764640Y1208349D01*
Y1211651D01*
X763785Y1214840D01*
X762134Y1217700D01*
X759800Y1220034D01*
X756940Y1221685D01*
X755985Y1221942D01*
Y1223458D01*
X756940Y1223715D01*
X759800Y1225366D01*
X762134Y1227700D01*
X763785Y1230560D01*
X764640Y1233749D01*
Y1237051D01*
X763785Y1240240D01*
X762134Y1243100D01*
X759800Y1245434D01*
X756940Y1247085D01*
X753751Y1247940D01*
D02*
G37*
G36*
X448951D02*
X445649D01*
X442460Y1247085D01*
X439600Y1245434D01*
X437266Y1243100D01*
X435615Y1240240D01*
X434760Y1237051D01*
Y1233749D01*
X435615Y1230560D01*
X437266Y1227700D01*
X439600Y1225366D01*
X442460Y1223715D01*
X443793Y1223357D01*
Y1222043D01*
X442460Y1221685D01*
X439600Y1220034D01*
X437266Y1217700D01*
X435615Y1214840D01*
X434760Y1211651D01*
Y1208349D01*
X435615Y1205160D01*
X437266Y1202300D01*
X439600Y1199966D01*
X442460Y1198315D01*
X445649Y1197460D01*
X448951D01*
X452140Y1198315D01*
X455000Y1199966D01*
X457335Y1202300D01*
X458985Y1205160D01*
X459840Y1208349D01*
Y1211651D01*
X458985Y1214840D01*
X457335Y1217700D01*
X455000Y1220034D01*
X452140Y1221685D01*
X450807Y1222043D01*
Y1223357D01*
X452140Y1223715D01*
X455000Y1225366D01*
X457335Y1227700D01*
X458985Y1230560D01*
X459840Y1233749D01*
Y1237051D01*
X458985Y1240240D01*
X457335Y1243100D01*
X455000Y1245434D01*
X452140Y1247085D01*
X448951Y1247940D01*
D02*
G37*
G36*
X421740Y1208730D02*
X410470D01*
Y1197460D01*
X410851D01*
X414040Y1198315D01*
X416900Y1199966D01*
X419235Y1202300D01*
X420885Y1205160D01*
X421740Y1208349D01*
Y1208730D01*
D02*
G37*
G36*
X407930D02*
X396660D01*
Y1208349D01*
X397515Y1205160D01*
X399165Y1202300D01*
X401500Y1199966D01*
X404360Y1198315D01*
X407549Y1197460D01*
X407930D01*
Y1208730D01*
D02*
G37*
G36*
X372751Y1247940D02*
X369449D01*
X366260Y1247085D01*
X363400Y1245434D01*
X361065Y1243100D01*
X359415Y1240240D01*
X358560Y1237051D01*
Y1233749D01*
X359415Y1230560D01*
X361065Y1227700D01*
X363400Y1225366D01*
X366260Y1223715D01*
X367593Y1223357D01*
Y1222043D01*
X366260Y1221685D01*
X363400Y1220034D01*
X361065Y1217700D01*
X359415Y1214840D01*
X358560Y1211651D01*
Y1208349D01*
X359415Y1205160D01*
X361065Y1202300D01*
X363400Y1199966D01*
X366260Y1198315D01*
X369449Y1197460D01*
X372751D01*
X375940Y1198315D01*
X378800Y1199966D01*
X381134Y1202300D01*
X382785Y1205160D01*
X383640Y1208349D01*
Y1211651D01*
X382785Y1214840D01*
X381134Y1217700D01*
X378800Y1220034D01*
X375940Y1221685D01*
X374607Y1222043D01*
Y1223357D01*
X375940Y1223715D01*
X378800Y1225366D01*
X381134Y1227700D01*
X382785Y1230560D01*
X383640Y1233749D01*
Y1237051D01*
X382785Y1240240D01*
X381134Y1243100D01*
X378800Y1245434D01*
X375940Y1247085D01*
X372751Y1247940D01*
D02*
G37*
G36*
X345540Y1208730D02*
X334270D01*
Y1197460D01*
X345540D01*
Y1208730D01*
D02*
G37*
G36*
X331730D02*
X320460D01*
Y1197460D01*
X331730D01*
Y1208730D01*
D02*
G37*
G36*
X633540Y1188540D02*
X612460D01*
Y1186885D01*
X608720D01*
X607233Y1186589D01*
X605973Y1185747D01*
X601518Y1181292D01*
X601000Y1181431D01*
X598659D01*
X596398Y1180826D01*
X594371Y1179655D01*
X592716Y1178000D01*
X591545Y1175973D01*
X590940Y1173712D01*
Y1171371D01*
X591545Y1169110D01*
X592716Y1167083D01*
X594371Y1165428D01*
X596398Y1164257D01*
X598659Y1163651D01*
X601000D01*
X603261Y1164257D01*
X605288Y1165428D01*
X606943Y1167083D01*
X608114Y1169110D01*
X608720Y1171371D01*
Y1173712D01*
X608114Y1175973D01*
X607774Y1176561D01*
X610329Y1179115D01*
X612460D01*
Y1177460D01*
X622528D01*
Y1154578D01*
X621444Y1154288D01*
X618927Y1152834D01*
X616871Y1150779D01*
X615418Y1148261D01*
X614665Y1145453D01*
Y1142547D01*
X615418Y1139739D01*
X616871Y1137221D01*
X618927Y1135166D01*
X621444Y1133712D01*
X624252Y1132960D01*
X627159D01*
X629967Y1133712D01*
X632484Y1135166D01*
X634540Y1137221D01*
X635993Y1139739D01*
X636745Y1142547D01*
Y1145453D01*
X635993Y1148261D01*
X634540Y1150779D01*
X632484Y1152834D01*
X630297Y1154097D01*
Y1177460D01*
X633540D01*
Y1188540D01*
D02*
G37*
G36*
X791540Y1174730D02*
X787270D01*
Y1170460D01*
X791540D01*
Y1174730D01*
D02*
G37*
G36*
X769730Y1175040D02*
X761960D01*
Y1168270D01*
X769730D01*
Y1175040D01*
D02*
G37*
G36*
X942519Y1183140D02*
X939481D01*
X936546Y1182354D01*
X933914Y1180834D01*
X931766Y1178686D01*
X930247Y1176054D01*
X929460Y1173119D01*
Y1170081D01*
X930247Y1167146D01*
X931766Y1164514D01*
X933914Y1162366D01*
X936546Y1160846D01*
X939481Y1160060D01*
X942519D01*
X945454Y1160846D01*
X948086Y1162366D01*
X950234Y1164514D01*
X951753Y1167146D01*
X952540Y1170081D01*
Y1173119D01*
X951753Y1176054D01*
X950234Y1178686D01*
X948086Y1180834D01*
X945454Y1182354D01*
X942519Y1183140D01*
D02*
G37*
G36*
X841519D02*
X838481D01*
X835546Y1182354D01*
X832914Y1180834D01*
X830766Y1178686D01*
X829246Y1176054D01*
X828460Y1173119D01*
Y1170081D01*
X829246Y1167146D01*
X830766Y1164514D01*
X832914Y1162366D01*
X835546Y1160846D01*
X838481Y1160060D01*
X841519D01*
X844454Y1160846D01*
X847086Y1162366D01*
X849234Y1164514D01*
X850753Y1167146D01*
X851540Y1170081D01*
Y1173119D01*
X850753Y1176054D01*
X849234Y1178686D01*
X847086Y1180834D01*
X844454Y1182354D01*
X841519Y1183140D01*
D02*
G37*
G36*
X780040Y1165730D02*
X772270D01*
Y1158960D01*
X780040D01*
Y1165730D01*
D02*
G37*
G36*
X391453Y1155040D02*
X391270D01*
Y1145270D01*
X401040D01*
Y1145453D01*
X400288Y1148261D01*
X398834Y1150779D01*
X396779Y1152834D01*
X394261Y1154288D01*
X391453Y1155040D01*
D02*
G37*
G36*
X671580D02*
X671397D01*
Y1145270D01*
X681167D01*
Y1145453D01*
X680414Y1148261D01*
X678961Y1150779D01*
X676905Y1152834D01*
X674388Y1154288D01*
X671580Y1155040D01*
D02*
G37*
G36*
X601472D02*
X601289D01*
Y1145270D01*
X611059D01*
Y1145453D01*
X610306Y1148261D01*
X608853Y1150779D01*
X606797Y1152834D01*
X604280Y1154288D01*
X601472Y1155040D01*
D02*
G37*
G36*
X668857D02*
X668673D01*
X665865Y1154288D01*
X663348Y1152834D01*
X661292Y1150779D01*
X659839Y1148261D01*
X659087Y1145453D01*
Y1145270D01*
X668857D01*
Y1155040D01*
D02*
G37*
G36*
X598749D02*
X598565D01*
X595757Y1154288D01*
X593240Y1152834D01*
X591184Y1150779D01*
X589731Y1148261D01*
X588979Y1145453D01*
Y1145270D01*
X598749D01*
Y1155040D01*
D02*
G37*
G36*
X681167Y1142730D02*
X671397D01*
Y1132960D01*
X671580D01*
X674388Y1133712D01*
X676905Y1135166D01*
X678961Y1137221D01*
X680414Y1139739D01*
X681167Y1142547D01*
Y1142730D01*
D02*
G37*
G36*
X668857D02*
X659087D01*
Y1142547D01*
X659839Y1139739D01*
X661292Y1137221D01*
X663348Y1135166D01*
X665865Y1133712D01*
X668673Y1132960D01*
X668857D01*
Y1142730D01*
D02*
G37*
G36*
X611059D02*
X601289D01*
Y1132960D01*
X601472D01*
X604280Y1133712D01*
X606797Y1135166D01*
X608853Y1137221D01*
X610306Y1139739D01*
X611059Y1142547D01*
Y1142730D01*
D02*
G37*
G36*
X598749D02*
X588979D01*
Y1142547D01*
X589731Y1139739D01*
X591184Y1137221D01*
X593240Y1135166D01*
X595757Y1133712D01*
X598565Y1132960D01*
X598749D01*
Y1142730D01*
D02*
G37*
G36*
X531854Y1155040D02*
X528947D01*
X526139Y1154288D01*
X523622Y1152834D01*
X521566Y1150779D01*
X520113Y1148261D01*
X519361Y1145453D01*
Y1142547D01*
X520113Y1139739D01*
X521566Y1137221D01*
X523622Y1135166D01*
X526139Y1133712D01*
X528947Y1132960D01*
X531854D01*
X534662Y1133712D01*
X537179Y1135166D01*
X539235Y1137221D01*
X540688Y1139739D01*
X541441Y1142547D01*
Y1145453D01*
X540688Y1148261D01*
X539235Y1150779D01*
X537179Y1152834D01*
X534662Y1154288D01*
X531854Y1155040D01*
D02*
G37*
G36*
X461791D02*
X458885D01*
X456077Y1154288D01*
X453559Y1152834D01*
X451504Y1150779D01*
X450051Y1148261D01*
X449298Y1145453D01*
Y1142547D01*
X450051Y1139739D01*
X451504Y1137221D01*
X453559Y1135166D01*
X456077Y1133712D01*
X458885Y1132960D01*
X461791D01*
X464599Y1133712D01*
X467117Y1135166D01*
X469172Y1137221D01*
X470626Y1139739D01*
X471378Y1142547D01*
Y1145453D01*
X470626Y1148261D01*
X469172Y1150779D01*
X467117Y1152834D01*
X464599Y1154288D01*
X461791Y1155040D01*
D02*
G37*
G36*
X401040Y1142730D02*
X391270D01*
Y1132960D01*
X391453D01*
X394261Y1133712D01*
X396779Y1135166D01*
X398834Y1137221D01*
X400288Y1139739D01*
X401040Y1142547D01*
Y1142730D01*
D02*
G37*
G36*
X367909Y1178620D02*
X364896Y1178223D01*
X362089Y1177060D01*
X359678Y1175210D01*
X357829Y1172800D01*
X356666Y1169993D01*
X356269Y1166980D01*
Y1120980D01*
X356666Y1117968D01*
X357829Y1115160D01*
X359678Y1112750D01*
X362089Y1110900D01*
X364896Y1109737D01*
X367909Y1109341D01*
X370921Y1109737D01*
X373729Y1110900D01*
X376139Y1112750D01*
X377989Y1115160D01*
X379152Y1117968D01*
X379548Y1120980D01*
Y1137483D01*
X380818Y1137823D01*
X381166Y1137221D01*
X383221Y1135166D01*
X385739Y1133712D01*
X388547Y1132960D01*
X388730D01*
Y1144000D01*
Y1155040D01*
X388547D01*
X385739Y1154288D01*
X383221Y1152834D01*
X381166Y1150779D01*
X380818Y1150177D01*
X379548Y1150517D01*
Y1166980D01*
X379152Y1169993D01*
X377989Y1172800D01*
X376139Y1175210D01*
X373729Y1177060D01*
X370921Y1178223D01*
X367909Y1178620D01*
D02*
G37*
G36*
X753170Y1195890D02*
X750830D01*
X748569Y1195284D01*
X746541Y1194114D01*
X744886Y1192459D01*
X743716Y1190431D01*
X743110Y1188170D01*
Y1185830D01*
X743716Y1183569D01*
X744886Y1181541D01*
X746541Y1179886D01*
X748569Y1178716D01*
X750830Y1178110D01*
X753170D01*
X755431Y1178716D01*
X757459Y1179886D01*
X757476Y1179904D01*
X761960D01*
Y1177960D01*
X780040D01*
X780460Y1176864D01*
Y1176136D01*
X780040Y1175040D01*
X779190Y1175040D01*
X772270D01*
Y1168270D01*
X780040D01*
Y1169364D01*
X780460Y1170460D01*
X781310Y1170460D01*
X784730D01*
Y1176000D01*
X786000D01*
Y1177270D01*
X791540D01*
Y1177533D01*
X792713Y1178019D01*
X834861Y1135872D01*
Y1131158D01*
X832914Y1130034D01*
X830766Y1127886D01*
X829246Y1125254D01*
X828460Y1122319D01*
Y1119281D01*
X829246Y1116346D01*
X830766Y1113714D01*
X832914Y1111566D01*
X835546Y1110046D01*
X838481Y1109260D01*
X841519D01*
X844454Y1110046D01*
X846790Y1111395D01*
X903395D01*
Y1078540D01*
X898460D01*
Y1049460D01*
X902935D01*
Y1038770D01*
X902500D01*
Y1020690D01*
X905861D01*
Y1018540D01*
X901270D01*
Y1013000D01*
Y1007460D01*
X905861D01*
Y1004540D01*
X899460D01*
Y979460D01*
X904861D01*
Y963540D01*
X904460D01*
Y951885D01*
X896540D01*
Y956730D01*
X891000D01*
X885460D01*
Y951885D01*
X877040D01*
Y955730D01*
X869000D01*
X860960D01*
Y951460D01*
Y941960D01*
X877040D01*
Y944115D01*
X885460D01*
Y942460D01*
X896540D01*
Y944115D01*
X904460D01*
Y942460D01*
X915540D01*
Y952460D01*
Y963540D01*
X915139D01*
Y979460D01*
X924540D01*
Y1004540D01*
X916139D01*
Y1013000D01*
X916089Y1013250D01*
X916139Y1013500D01*
Y1020690D01*
X918580D01*
Y1038770D01*
X918145D01*
Y1049460D01*
X923540D01*
Y1078540D01*
X918605D01*
Y1111395D01*
X932285D01*
X933914Y1109766D01*
X936546Y1108246D01*
X939481Y1107460D01*
X942519D01*
X945454Y1108246D01*
X948086Y1109766D01*
X950234Y1111914D01*
X951753Y1114546D01*
X952540Y1117481D01*
Y1120519D01*
X951753Y1123454D01*
X950234Y1126086D01*
X948086Y1128234D01*
X945454Y1129753D01*
X942519Y1130540D01*
X939481D01*
X936546Y1129753D01*
X933914Y1128234D01*
X932285Y1126605D01*
X849974D01*
X849234Y1127886D01*
X847086Y1130034D01*
X845139Y1131158D01*
Y1138000D01*
X844748Y1139967D01*
X843634Y1141634D01*
X794902Y1190365D01*
X793235Y1191479D01*
X791269Y1191870D01*
X780040D01*
Y1194040D01*
X761960D01*
Y1193096D01*
X758476D01*
X757459Y1194114D01*
X755431Y1195284D01*
X753170Y1195890D01*
D02*
G37*
G36*
X879540Y1078540D02*
X868270D01*
Y1065270D01*
X879540D01*
Y1078540D01*
D02*
G37*
G36*
X865730D02*
X854460D01*
Y1065270D01*
X865730D01*
Y1078540D01*
D02*
G37*
G36*
X942519Y1079740D02*
X939481D01*
X936546Y1078953D01*
X933914Y1077434D01*
X931766Y1075286D01*
X930247Y1072654D01*
X929460Y1069719D01*
Y1066681D01*
X930247Y1063746D01*
X931766Y1061114D01*
X933914Y1058966D01*
X936546Y1057446D01*
X939481Y1056660D01*
X942519D01*
X945454Y1057446D01*
X948086Y1058966D01*
X950234Y1061114D01*
X951753Y1063746D01*
X952540Y1066681D01*
Y1069719D01*
X951753Y1072654D01*
X950234Y1075286D01*
X948086Y1077434D01*
X945454Y1078953D01*
X942519Y1079740D01*
D02*
G37*
G36*
X879540Y1062730D02*
X868270D01*
Y1049460D01*
X879540D01*
Y1062730D01*
D02*
G37*
G36*
X865730D02*
X854460D01*
Y1049460D01*
X865730D01*
Y1062730D01*
D02*
G37*
G36*
X899580Y1038770D02*
X892810D01*
Y1031000D01*
X899580D01*
Y1038770D01*
D02*
G37*
G36*
X890270D02*
X883500D01*
Y1031000D01*
X890270D01*
Y1038770D01*
D02*
G37*
G36*
X899580Y1028460D02*
X892810D01*
Y1020690D01*
X899580D01*
Y1028460D01*
D02*
G37*
G36*
X890270D02*
X883500D01*
Y1020690D01*
X890270D01*
Y1028460D01*
D02*
G37*
G36*
X898730Y1018540D02*
X894460D01*
Y1014270D01*
X898730D01*
Y1018540D01*
D02*
G37*
G36*
Y1011730D02*
X894460D01*
Y1007460D01*
X898730D01*
Y1011730D01*
D02*
G37*
G36*
X884540Y1004540D02*
X859460D01*
Y995596D01*
X853540D01*
Y1002540D01*
X835760D01*
Y975460D01*
X853540D01*
Y982404D01*
X859460D01*
Y979460D01*
X862404D01*
Y972040D01*
X860960D01*
Y960960D01*
Y958270D01*
X869000D01*
X877040D01*
Y960960D01*
Y972040D01*
X875596D01*
Y979460D01*
X884540D01*
Y1004540D01*
D02*
G37*
G36*
X830240Y1002540D02*
X812460D01*
Y975460D01*
X813861D01*
Y973540D01*
X813460D01*
Y973430D01*
X800040D01*
Y975540D01*
X781960D01*
Y974605D01*
X779858D01*
X777889Y974346D01*
X776815Y973901D01*
X776055Y973586D01*
X774480Y972378D01*
X768622Y966520D01*
X767414Y964945D01*
X766654Y963111D01*
X766395Y961142D01*
Y887000D01*
X766654Y885032D01*
X767414Y883197D01*
X768622Y881622D01*
X803622Y846622D01*
X805197Y845414D01*
X807032Y844654D01*
X809000Y844395D01*
X819485D01*
X821114Y842766D01*
X823746Y841246D01*
X826681Y840460D01*
X829719D01*
X832654Y841246D01*
X835286Y842766D01*
X837434Y844914D01*
X838953Y847546D01*
X839740Y850481D01*
Y853519D01*
X838953Y856454D01*
X837434Y859086D01*
X835286Y861234D01*
X832654Y862754D01*
X829719Y863540D01*
X826681D01*
X823746Y862754D01*
X821114Y861234D01*
X819485Y859605D01*
X812150D01*
X781605Y890150D01*
Y939337D01*
X781960Y940460D01*
X782875Y940460D01*
X789730D01*
Y948500D01*
Y956540D01*
X782875D01*
X781960Y956540D01*
X781605Y957663D01*
Y957992D01*
X783008Y959395D01*
X790500D01*
X790994Y959460D01*
X800040D01*
Y963153D01*
X813460D01*
Y952540D01*
X808460D01*
Y948270D01*
X814000D01*
Y947000D01*
X815270D01*
Y941460D01*
X829540D01*
Y943365D01*
X834960D01*
Y941960D01*
X851040D01*
Y951460D01*
Y960960D01*
Y972040D01*
X834960D01*
Y966217D01*
X833787Y965731D01*
X828259Y971259D01*
X826591Y972373D01*
X824625Y972764D01*
X824540D01*
Y973540D01*
X824139D01*
Y975460D01*
X830240D01*
Y1002540D01*
D02*
G37*
G36*
X896540Y963540D02*
X892270D01*
Y959270D01*
X896540D01*
Y963540D01*
D02*
G37*
G36*
X889730D02*
X885460D01*
Y959270D01*
X889730D01*
Y963540D01*
D02*
G37*
G36*
X792270Y956540D02*
Y949770D01*
X800040D01*
Y956540D01*
X792270D01*
D02*
G37*
G36*
X812730Y945730D02*
X808460D01*
Y941460D01*
X812730D01*
Y945730D01*
D02*
G37*
G36*
X800040Y947230D02*
X792270D01*
Y940460D01*
X800040D01*
Y947230D01*
D02*
G37*
G36*
X755338Y931520D02*
X755270D01*
Y922630D01*
X764160D01*
Y922698D01*
X763468Y925282D01*
X762130Y927598D01*
X760238Y929490D01*
X757922Y930828D01*
X755338Y931520D01*
D02*
G37*
G36*
X764160Y920090D02*
X755270D01*
Y911200D01*
X755338D01*
X757922Y911892D01*
X760238Y913230D01*
X762130Y915122D01*
X763468Y917438D01*
X764160Y920022D01*
Y920090D01*
D02*
G37*
G36*
X880519Y863540D02*
X877481D01*
X874546Y862754D01*
X871914Y861234D01*
X869766Y859086D01*
X868246Y856454D01*
X867460Y853519D01*
Y850481D01*
X868246Y847546D01*
X869766Y844914D01*
X871914Y842766D01*
X874546Y841246D01*
X877481Y840460D01*
X880519D01*
X883454Y841246D01*
X886086Y842766D01*
X888234Y844914D01*
X889753Y847546D01*
X890540Y850481D01*
Y853519D01*
X889753Y856454D01*
X888234Y859086D01*
X886086Y861234D01*
X883454Y862754D01*
X880519Y863540D01*
D02*
G37*
%LPD*%
D17*
X941000Y1171600D02*
D03*
Y1119000D02*
D03*
Y1068200D02*
D03*
X840000Y1120800D02*
D03*
Y1171600D02*
D03*
Y1070000D02*
D03*
X879000Y852000D02*
D03*
X929800D02*
D03*
X828200D02*
D03*
D20*
X770500Y1186500D02*
X771000Y1186000D01*
X752500Y1186500D02*
X770500D01*
X752000Y1187000D02*
X752500Y1186500D01*
X844650Y989000D02*
X870000D01*
X871000Y988000D01*
X869000Y969000D02*
Y988000D01*
D21*
X723000Y1194000D02*
X839000Y1078000D01*
X691900Y1194000D02*
X723000D01*
X695523Y1144002D02*
Y1181523D01*
X697000Y1183000D01*
X415935Y1144000D02*
X416392Y1144457D01*
Y1180392D01*
X418000Y1182000D01*
X486362Y1180362D02*
X488000Y1182000D01*
X486362Y1144828D02*
Y1180362D01*
X485534Y1144000D02*
X486362Y1144828D01*
X626412Y1144707D02*
Y1181412D01*
X628000Y1183000D01*
X625705Y1144000D02*
X626412Y1144707D01*
X556377Y1181377D02*
X558000Y1183000D01*
X556377Y1144603D02*
Y1181377D01*
X555774Y1144000D02*
X556377Y1144603D01*
X418161Y1138000D02*
Y1144000D01*
X418080Y1144081D02*
X418161Y1144000D01*
X869000Y947500D02*
X869500Y948000D01*
X892082D01*
X599830Y1172541D02*
Y1174110D01*
X608720Y1183000D01*
X824000Y947000D02*
Y953000D01*
X668810Y1196190D02*
X681678Y1183322D01*
X561600Y1210000D02*
X575410Y1196190D01*
X668810D01*
X681678Y1183322D02*
X686678D01*
X608720Y1183000D02*
X618000D01*
X892000Y949000D02*
X893000Y948000D01*
X910000D01*
X891250Y948250D02*
X892000Y949000D01*
X686678Y1183322D02*
X687000Y1183000D01*
X842750Y947250D02*
X843000Y947500D01*
X825250Y947250D02*
X839750D01*
X819000Y958000D02*
X824000Y953000D01*
X561600Y1210000D02*
Y1235400D01*
X485400Y1210000D02*
Y1235400D01*
X752100Y1210000D02*
Y1235400D01*
X675900Y1210000D02*
Y1235400D01*
Y1210000D02*
X691900Y1194000D01*
D22*
X599700Y1210000D02*
Y1235400D01*
X837000Y1119000D02*
X911000D01*
Y1064000D02*
Y1119000D01*
X941000D01*
X774000Y887000D02*
Y961142D01*
X779858Y967000D01*
X774000Y887000D02*
X809000Y852000D01*
X779858Y967000D02*
X790500D01*
X791000Y967500D01*
X910540Y1029730D02*
Y1063540D01*
X809000Y852000D02*
X828200D01*
X523500Y1210000D02*
Y1235400D01*
D23*
X969000Y838000D02*
D03*
Y1236000D02*
D03*
X287000Y1238000D02*
D03*
Y1104000D02*
D03*
D24*
X637800Y1210000D02*
D03*
X675900D02*
D03*
X714000D02*
D03*
X752100D02*
D03*
X485400D02*
D03*
X523500D02*
D03*
X561600D02*
D03*
X599700D02*
D03*
X371100D02*
D03*
X409200D02*
D03*
X447300D02*
D03*
X637800Y1235400D02*
D03*
X675900D02*
D03*
X714000D02*
D03*
X752100D02*
D03*
X485400D02*
D03*
X523500D02*
D03*
X561600D02*
D03*
X599700D02*
D03*
X371100D02*
D03*
X409200D02*
D03*
X447300D02*
D03*
D25*
X333000Y1210000D02*
D03*
Y1235400D02*
D03*
D26*
X390000Y1144000D02*
D03*
X415935D02*
D03*
X460338D02*
D03*
X485534D02*
D03*
X530401D02*
D03*
X555774D02*
D03*
X600019D02*
D03*
X625705D02*
D03*
X670127D02*
D03*
X695525D02*
D03*
D27*
X754000Y962000D02*
D03*
Y921360D02*
D03*
D28*
X961000Y1198000D02*
D03*
X976000Y1168000D02*
D03*
X961000Y1138000D02*
D03*
X976000Y1108000D02*
D03*
X961000Y1078000D02*
D03*
X976000Y1048000D02*
D03*
X961000Y1018000D02*
D03*
X976000Y988000D02*
D03*
X961000Y958000D02*
D03*
X976000Y928000D02*
D03*
X961000Y898000D02*
D03*
X976000Y868000D02*
D03*
X931000Y1198000D02*
D03*
Y1138000D02*
D03*
X946000Y1048000D02*
D03*
X931000Y1018000D02*
D03*
X946000Y988000D02*
D03*
X931000Y958000D02*
D03*
X946000Y928000D02*
D03*
X931000Y898000D02*
D03*
X946000Y868000D02*
D03*
X916000Y1228000D02*
D03*
X901000Y1198000D02*
D03*
X916000Y1168000D02*
D03*
X901000Y1138000D02*
D03*
X916000Y928000D02*
D03*
X901000Y898000D02*
D03*
X916000Y868000D02*
D03*
X901000Y838000D02*
D03*
X886000Y1228000D02*
D03*
X871000Y1198000D02*
D03*
X886000Y1168000D02*
D03*
X871000Y1138000D02*
D03*
X886000Y1048000D02*
D03*
X871000Y1018000D02*
D03*
X886000Y928000D02*
D03*
X871000Y898000D02*
D03*
X886000Y868000D02*
D03*
X871000Y838000D02*
D03*
X856000Y1228000D02*
D03*
X841000Y1198000D02*
D03*
X856000Y1168000D02*
D03*
X841000Y1018000D02*
D03*
X856000Y928000D02*
D03*
X841000Y898000D02*
D03*
Y838000D02*
D03*
X826000Y1228000D02*
D03*
X811000Y1198000D02*
D03*
Y1138000D02*
D03*
X826000Y1108000D02*
D03*
X811000Y1078000D02*
D03*
X826000Y1048000D02*
D03*
X811000Y1018000D02*
D03*
X826000Y928000D02*
D03*
Y868000D02*
D03*
X811000Y838000D02*
D03*
X796000Y1228000D02*
D03*
Y1168000D02*
D03*
Y1108000D02*
D03*
X781000Y1078000D02*
D03*
X796000Y1048000D02*
D03*
X781000Y1018000D02*
D03*
X796000Y988000D02*
D03*
X781000Y838000D02*
D03*
X751000Y1138000D02*
D03*
X766000Y1108000D02*
D03*
X751000Y1078000D02*
D03*
X766000Y1048000D02*
D03*
X751000Y1018000D02*
D03*
X766000Y988000D02*
D03*
X751000Y898000D02*
D03*
X766000Y868000D02*
D03*
X751000Y838000D02*
D03*
X736000Y1228000D02*
D03*
Y1168000D02*
D03*
Y1108000D02*
D03*
X706000D02*
D03*
X676000Y1168000D02*
D03*
Y1108000D02*
D03*
X646000Y1168000D02*
D03*
Y1108000D02*
D03*
X616000Y1228000D02*
D03*
Y1168000D02*
D03*
Y1108000D02*
D03*
X571000Y1138000D02*
D03*
X586000Y1108000D02*
D03*
X541000Y1198000D02*
D03*
X556000Y1108000D02*
D03*
X526000D02*
D03*
X496000Y1168000D02*
D03*
Y1108000D02*
D03*
X466000Y1228000D02*
D03*
Y1168000D02*
D03*
Y1108000D02*
D03*
X421000Y1198000D02*
D03*
X436000Y1168000D02*
D03*
Y1108000D02*
D03*
X406000Y1168000D02*
D03*
Y1108000D02*
D03*
X376000D02*
D03*
X346000Y1168000D02*
D03*
X331000Y1138000D02*
D03*
X346000Y1108000D02*
D03*
X301000Y1198000D02*
D03*
X316000Y1168000D02*
D03*
X301000Y1138000D02*
D03*
X271000Y1198000D02*
D03*
X286000Y1168000D02*
D03*
X271000Y1138000D02*
D03*
D29*
X752000Y1187000D02*
D03*
X599830Y1172541D02*
D03*
D30*
X824000Y947000D02*
D03*
X814000D02*
D03*
X910000Y1013000D02*
D03*
X900000D02*
D03*
X428000Y1182000D02*
D03*
X418000D02*
D03*
X478000D02*
D03*
X488000D02*
D03*
X548000Y1183000D02*
D03*
X558000D02*
D03*
X628000D02*
D03*
X618000D02*
D03*
X697000D02*
D03*
X687000D02*
D03*
D31*
X872000Y992000D02*
D03*
X912000D02*
D03*
D32*
X786000Y1186000D02*
D03*
Y1176000D02*
D03*
X819000Y968000D02*
D03*
Y958000D02*
D03*
X891000Y948000D02*
D03*
Y958000D02*
D03*
X910000D02*
D03*
Y948000D02*
D03*
D33*
X771000Y1167000D02*
D03*
Y1186000D02*
D03*
X791000Y948500D02*
D03*
Y967500D02*
D03*
D34*
X821350Y989000D02*
D03*
X844650D02*
D03*
D35*
X843000Y966500D02*
D03*
Y957000D02*
D03*
Y947500D02*
D03*
X869000D02*
D03*
Y957000D02*
D03*
Y966500D02*
D03*
D36*
X891540Y1029730D02*
D03*
X910540D02*
D03*
D37*
X911000Y1064000D02*
D03*
X867000D02*
D03*
D38*
X771000Y1186731D02*
X791269D01*
X911000Y1013500D02*
Y1030000D01*
Y993000D02*
Y1013000D01*
X910000Y958000D02*
Y990000D01*
X912000Y992000D01*
X478500Y1182500D02*
Y1187500D01*
X483740Y1192740D02*
X523500D01*
X478500Y1187500D02*
X483740Y1192740D01*
X533240Y1183000D02*
X548000D01*
X523500Y1192740D02*
X533240Y1183000D01*
X793792Y968292D02*
X818708D01*
X840000Y1120800D02*
Y1138000D01*
X791269Y1186731D02*
X840000Y1138000D01*
X478000Y1182000D02*
X478500Y1182500D01*
X819000Y968000D02*
X819375Y967625D01*
X824625D01*
X834750Y957500D01*
X842500D01*
X819000Y968000D02*
Y980000D01*
X823350Y984350D02*
Y989000D01*
X819000Y980000D02*
X823350Y984350D01*
X523500Y1192740D02*
Y1210000D01*
X428000Y1182000D02*
X478000D01*
X842500Y957500D02*
X843000Y957000D01*
M02*
