G04*
G04 #@! TF.GenerationSoftware,Altium Limited,Altium Designer,23.1.1 (15)*
G04*
G04 Layer_Color=16711935*
%FSLAX44Y44*%
%MOMM*%
G71*
G04*
G04 #@! TF.SameCoordinates,DA8C0BEE-71F1-460D-B415-3B7703EDD080*
G04*
G04*
G04 #@! TF.FilePolarity,Negative*
G04*
G01*
G75*
%ADD13C,3.2300*%
%ADD14C,2.2000*%
%ADD15R,2.2000X2.2000*%
%ADD16R,0.1000X0.1000*%
%ADD17C,1.8000*%
%ADD18C,1.9300*%
%ADD19C,1.6540*%
%ADD39R,0.7300X0.7300*%
%ADD40R,2.1300X2.1300*%
%ADD41R,0.7300X0.7300*%
%ADD42R,1.4300X1.2300*%
%ADD43R,1.4000X2.3300*%
%ADD44R,1.2300X0.7300*%
%ADD45R,1.2300X1.4300*%
%ADD46R,2.1300X2.5300*%
D13*
X969000Y838000D02*
D03*
Y1236000D02*
D03*
X287000Y1238000D02*
D03*
Y1104000D02*
D03*
D14*
X637800Y1210000D02*
D03*
X675900D02*
D03*
X714000D02*
D03*
X752100D02*
D03*
X485400D02*
D03*
X523500D02*
D03*
X561600D02*
D03*
X599700D02*
D03*
X371100D02*
D03*
X409200D02*
D03*
X447300D02*
D03*
X637800Y1235400D02*
D03*
X675900D02*
D03*
X714000D02*
D03*
X752100D02*
D03*
X485400D02*
D03*
X523500D02*
D03*
X561600D02*
D03*
X599700D02*
D03*
X371100D02*
D03*
X409200D02*
D03*
X447300D02*
D03*
D15*
X333000Y1210000D02*
D03*
Y1235400D02*
D03*
D16*
X717909Y1143980D02*
D03*
X367909D02*
D03*
D17*
X390000Y1144000D02*
D03*
X415935D02*
D03*
X460338D02*
D03*
X485534D02*
D03*
X530401D02*
D03*
X555774D02*
D03*
X600019D02*
D03*
X625705D02*
D03*
X670127D02*
D03*
X695525D02*
D03*
D18*
X941000Y1171600D02*
D03*
Y1119000D02*
D03*
Y1068200D02*
D03*
X840000Y1120800D02*
D03*
Y1171600D02*
D03*
Y1070000D02*
D03*
X879000Y852000D02*
D03*
X929800D02*
D03*
X828200D02*
D03*
D19*
X754000Y962000D02*
D03*
Y921360D02*
D03*
D39*
X824000Y947000D02*
D03*
X814000D02*
D03*
X910000Y1013000D02*
D03*
X900000D02*
D03*
X428000Y1182000D02*
D03*
X418000D02*
D03*
X478000D02*
D03*
X488000D02*
D03*
X548000Y1183000D02*
D03*
X558000D02*
D03*
X628000D02*
D03*
X618000D02*
D03*
X697000D02*
D03*
X687000D02*
D03*
D40*
X872000Y992000D02*
D03*
X912000D02*
D03*
D41*
X786000Y1186000D02*
D03*
Y1176000D02*
D03*
X819000Y968000D02*
D03*
Y958000D02*
D03*
X891000Y948000D02*
D03*
Y958000D02*
D03*
X910000D02*
D03*
Y948000D02*
D03*
D42*
X771000Y1167000D02*
D03*
Y1186000D02*
D03*
X791000Y948500D02*
D03*
Y967500D02*
D03*
D43*
X821350Y989000D02*
D03*
X844650D02*
D03*
D44*
X843000Y966500D02*
D03*
Y957000D02*
D03*
Y947500D02*
D03*
X869000D02*
D03*
Y957000D02*
D03*
Y966500D02*
D03*
D45*
X891540Y1029730D02*
D03*
X910540D02*
D03*
D46*
X911000Y1064000D02*
D03*
X867000D02*
D03*
M02*
