M48
;Layer_Color=9474304
;FILE_FORMAT=4:4
METRIC,LZ
;TYPE=PLATED
T1F00S00C0.7112
T2F00S00C0.7620
T3F00S00C0.9000
T4F00S00C1.2000
T5F00S00C1.2000
;TYPE=NON_PLATED
T7F00S00C3.1000
%
T01
X00271Y01138
X00301
X00331
X00346Y01168
X00316
X00286
X00346Y01108
X00376
X00406
X00436
X00466
X00496
X00526
X00556
X00586
X00616
X00646
X00676
X00706
X00736
X00766
X00781Y01078
X00751
X00766Y01048
X00781Y01018
X00751
X00766Y00988
X00751Y00898
X00766Y00868
X00781Y00838
X00751
Y01138
X00736Y01168
X00752Y01187
X00676Y01168
X00646
X00616
X0059983Y01172541
X00571Y01138
X00496Y01168
X00466
X00436
X00406
X00796
X00811Y01138
X00826Y01108
X00796
X00811Y01078
X00826Y01048
X00796
X00811Y01018
X00841
X00871
X00886Y01048
X00946
X00976
X00961Y01078
X00976Y01108
X00961Y01138
X00931
X00901
X00871
X00886Y01168
X00916
X00976
X00856
X00931Y01018
X00961
X00976Y00988
X00946
X00961Y00958
X00931
X00946Y00928
X00976
X00961Y00898
X00931
X00901
X00871
X00841
X00856Y00928
X00886
X00916
Y00868
X00946
X00976
X00886
X00901Y00838
X00871
X00841
X00811
X00826Y00868
Y00928
X00796Y00988
X00811Y01198
X00841
X00871
X00901
X00931
X00961
X00916Y01228
X00886
X00856
X00826
X00796
X00736
X00616
X00541Y01198
X00466Y01228
X00421Y01198
X00301
X00271
T02
X00754Y0092136
Y00962
T03
X0039Y01144
X00415935
X00460338
X00485534
X00530401
X00555774
X00600019
X00625705
X00670127
X00695525
T04
X008282Y00852
X00879
X009298
X00941Y010682
Y01119
Y011716
X0084
Y011208
Y0107
T05
X004092Y0121
Y012354
X004473
Y0121
X004854
Y012354
X005235
Y0121
X005616
Y012354
X005997
Y0121
X006378
Y012354
X006759
Y0121
X00714
Y012354
X007521
Y0121
X003711
Y012354
X00333
Y0121
T07
X00287Y01104
X00969Y00838
Y01236
X00287Y01238
M30
